<svg version="1.1" id="Capa_1" xmlns="http://www.w3.org/2000/svg" xmlns:xlink="http://www.w3.org/1999/xlink" x="0px" y="0px"
	 viewBox="0 0 480 480" style="enable-background:new 0 0 480 480;" xml:space="preserve">
<path d="M438.962,404.442l-19.997-88.043l-72.034,46.692l10.879,16.783l35.039-22.713c-10.395,24.256-23.837,44.523-40.16,60.443
	c-26.718,26.06-61.215,40.209-102.713,42.153V202.854h75.779v-20h-75.779V112.24c26.42-4.741,46.539-27.895,46.539-55.679
	C296.515,25.373,271.152,0,239.977,0c-31.2,0-56.583,25.373-56.583,56.562c0,27.787,20.138,50.942,46.583,55.68v70.613h-75.799v20
	h75.799V459.76c-41.436-1.939-75.937-16.089-102.654-42.153c-16.312-15.914-29.748-36.174-40.141-60.423l35.007,22.692
	l10.879-16.783l-72.035-46.692l-19.994,88.043l19.503,4.43l9.373-41.272c11.285,25.561,25.818,47.128,43.443,64.323
	C146.057,463.824,188.65,480,240.044,480c51.304,0,93.902-16.176,126.609-48.076c17.625-17.191,32.156-38.747,43.44-64.292
	l9.366,41.24L438.962,404.442z M203.394,56.562c0-20.16,16.411-36.562,36.583-36.562c20.147,0,36.539,16.401,36.539,36.562
	c0,20.172-16.392,36.583-36.539,36.583C219.805,93.145,203.394,76.733,203.394,56.562z"/>
</svg>
