<svg version="1.1" id="Capa_1" xmlns="http://www.w3.org/2000/svg" xmlns:xlink="http://www.w3.org/1999/xlink" x="0px" y="0px"
	 viewBox="0 0 512 512" style="enable-background:new 0 0 512 512;" xml:space="preserve">
<g>
	<g>
		<path d="M505.353,339.239l-44.444-236.477C454.42,61.441,418.786,31,377,31h-30c-8.284,0-15,6.716-15,15s6.716,15,15,15h30
			c27.31,0,50.145,19.591,54.298,46.583c0.025,0.164,0.053,0.327,0.084,0.49l33.956,180.668C448.641,277.542,428.571,271,407,271
			c-46.644,0-86.275,30.575-99.921,72.734c-31.598-17.063-70.56-17.063-102.158,0C191.275,301.575,151.644,271,105,271
			c-21.571,0-41.641,6.542-58.337,17.741l33.956-180.668c0.031-0.163,0.059-0.326,0.084-0.49C84.855,80.591,107.69,61,135,61h30
			c8.284,0,15-6.716,15-15s-6.716-15-15-15h-30c-41.828,0-77.426,30.482-83.909,71.762L6.647,339.239C2.354,350.686,0,363.072,0,376
			c0,57.897,47.103,105,105,105c57.89,0,104.988-47.091,105-104.978c26.628-19.805,65.372-19.805,92.001,0
			C302.012,433.909,349.11,481,407,481c57.897,0,105-47.103,105-105C512,363.072,509.646,350.686,505.353,339.239z M105,451
			c-41.355,0-75-33.645-75-75c0-41.355,33.645-75,75-75s75,33.645,75,75C180,417.355,146.355,451,105,451z M407,451
			c-41.355,0-75-33.645-75-75c0-41.355,33.645-75,75-75c41.355,0,75,33.645,75,75C482,417.355,448.355,451,407,451z"/>
	</g>
</g>
</svg>
